<svg xmlns="http://www.w3.org/2000/svg" xmlns:xlink="http://www.w3.org/1999/xlink" width="36" height="36" viewBox="0 0 36 36"><defs><linearGradient id="a"><stop offset="0" stop-color="#ffd800"/><stop offset="1" stop-color="#ff6100"/></linearGradient><linearGradient id="b" x1="906.952" x2="931.379" y1="515.915" y2="546.094" gradientTransform="translate(-1041.539 421.597) scale(1.15339)" gradientUnits="userSpaceOnUse" xlink:href="#a"/></defs><g transform="translate(0 -1016.362)"><rect width="36" height="36" y="1016.362" fill="url(#b)" rx="7.608" ry="7.608"/><path fill="#fff" style="text-indent:0;text-align:start;line-height:normal;text-transform:none;block-progression:tb" d="m 17.953161,1024.3622 c -0.09833,0.01 -0.192775,0.04 -0.271484,0.1 l -2.507813,1.8809 -4.673828,0 0,0.5 0,3.0039 -1.800781,1.3496 c -0.1636267,0.1232 -0.2356,0.3337 -0.1816406,0.5312 -0.012691,0.046 -0.018612,0.094 -0.017578,0.1426 l 0,10.9922 c 2.76e-5,0.2761 0.2238691,0.5 0.5,0.5 l 17.9999996,0 c 0.276131,0 0.499972,-0.2239 0.5,-0.5 l 0,-10.9922 c 9.36e-4,-0.07 -0.01304,-0.1404 -0.04102,-0.2051 0.02997,-0.1836 -0.04453,-0.3687 -0.19336,-0.4804 l -0.34375,-0.2559 c 0.35231,-0.6359 0.570314,-1.356 0.570313,-2.1328 9e-6,-2.4413 -1.983461,-4.4336 -4.419917,-4.4336 -1.230678,0 -2.343696,0.5104 -3.146484,1.3281 l -1.644532,-1.2285 c -0.09422,-0.071 -0.210428,-0.1061 -0.328125,-0.1 z m 5.119141,1 c 0.934228,0 1.776492,0.3748 2.392578,0.9805 l -0.0078,0 c 0.01008,0.01 0.02519,0.013 0.03516,0.023 0.0029,0 0.0049,0.01 0.0078,0.01 0.612999,0.6199 0.992189,1.4732 0.992188,2.4199 3e-6,1.9025 -1.525525,3.4316 -3.419922,3.4316 -1.894397,0 -3.421878,-1.5291 -3.421875,-3.4316 -7e-6,-1.9025 1.527474,-3.4336 3.421871,-3.4336 z m -5.087891,0.125 1.142578,0.8555 -2.283203,0 z m 5.080078,1.043 c -0.276145,0 -0.496508,0.2316 -0.492187,0.5078 l 0,1.2578 -1.257813,0 c -0.676161,-0.01 -0.676161,1.0096 0,1 l 1.257813,0 0,1.2578 c -0.0096,0.6762 1.009563,0.6762 1,0 l 0,-1.2578 1.257812,0 c 0.676161,0.01 0.676161,-1.0096 0,-1 l -1.257812,0 0,-1.2578 c 0.0044,-0.2823 -0.225546,-0.5122 -0.507813,-0.5078 z m -11.564453,0.8125 7.414063,0 c -0.110277,0.3152 -0.180371,0.6455 -0.216797,0.9883 l -4.197266,0 0,1.0625 4.210938,0 c 0.04597,0.3358 0.12123,0.6609 0.238281,0.9687 l -5.449219,0 0,1.0625 6.033203,0 c 0.26549,0.3576 0.580676,0.6739 0.939453,0.9375 l -4.972656,0 0,1.0625 5,0 0,-1.0391 c 0.726461,0.5247 1.611388,0.8418 2.572266,0.8418 0.129881,0 0.251831,-0.028 0.378906,-0.039 l -5.46875,3.4179 -6.482422,-4.041 z m -1,3.7539 0,0.8457 -0.6152341,-0.3828 z m 16,1.3691 0,9.4688 -5.216797,-3.4844 c -0.48884,-0.2822 -1.066183,0.5367 -0.554687,0.832 l 4.611328,3.0801 -14.689453,0 4.619141,-3.0801 c 0.512322,-0.2958 0.06834,-1.1917 -0.554688,-0.832 l -5.2148438,3.4785 0,-9.4316 1.2363278,0.7695 6.892578,4.2969 0.08594,0.055 0.03711,0.023 0.002,0 c 0.141845,0.072 0.309327,0.072 0.451172,0 l 0.0098,0 7.037109,-4.3965 0.01172,-0.01 0.002,0 z" color="#000" font-family="sans-serif" font-weight="400" overflow="visible"/></g></svg>