<svg xmlns="http://www.w3.org/2000/svg" enable-background="new 0 0 50 50" viewBox="0 0 50 50"><g enable-background="new"><path fill="#DD454D" d="M48.3,23.9L26.8,36.4c-0.9,0.5-2.5,0.5-3.4,0L1.7,23.9c-0.5-0.3-0.7-0.6-0.7-1L1,29c0,0.4,0.2,0.7,0.7,1
				l21.7,12.5c0.9,0.5,2.5,0.5,3.4,0L48.3,30c0.5-0.3,0.7-0.6,0.7-1l0-6.1C49,23.3,48.8,23.6,48.3,23.9z"/><path fill="#EF5A5A" d="M48.3,21.9c0.9,0.5,0.9,1.4,0,2L26.8,36.4c-0.9,0.5-2.5,0.5-3.4,0L1.7,23.9c-0.9-0.5-1-1.4,0-2L23.2,9.4
					c0.9-0.5,2.5-0.5,3.4,0L48.3,21.9z"/></g><path fill="#A72433" d="M31.8,13.3c0.3,0.2,0.3,0.4,0,0.6l-4.3,2.5c-0.3,0.2-0.7,0.2-1,0c-0.3-0.2-0.7-0.2-1,0l-11,6.4
			c-0.3,0.2-0.3,0.4,0,0.6c0.3,0.2,0.3,0.4,0,0.6l-4.3,2.5c-0.3,0.2-0.7,0.2-1,0l-5.7-3.3c-0.3-0.2-0.3-0.4,0-0.6L7.8,20
			c0.3-0.2,0.7-0.2,1,0c0.3,0.2,0.7,0.2,1,0l11-6.4c0.3-0.2,0.3-0.4,0-0.6c-0.3-0.2-0.3-0.4,0-0.6l4.3-2.5c0.3-0.2,0.7-0.2,1,0
			L31.8,13.3z"/><g enable-background="new"><polygon fill="#BC2B3B" points="37.5 28.3 25.2 21.2 25.2 19.5 37.5 26.7"/><polygon fill="#DD454D" points="37.5 26.7 25.2 19.5 34.2 12.1 46.5 19.2"/><polygon fill="#69C4EF" points="27.5 19.3 34.4 13.7 44.2 19.4 37.3 25.1"/><polygon fill="#EF5A5A" points="44.2 19.4 34.4 13.7 34 13.9 43.6 19.5 37.1 24.9 37.3 25.1"/><g><polygon fill="#A72433" points="46.5 19.2 46.5 23.1 37.5 28.3 37.5 26.7"/></g></g><path fill="#B0AFB0" d="M22.5 23.4l1.5.9c.2.1.6.1.9 0l.8-.5c.1-.1.2-.2.2-.2l0-.6c0 .1-.1.2-.2.2l-.8.5c-.2.1-.6.1-.9 0l-1.5-.9c-.1-.1-.2-.2-.2-.3l0 .6C22.4 23.3 22.4 23.4 22.5 23.4zM25.5 24.3l0 .6c0 .1.1.2.2.3l1.5.9c.2.1.6.1.9 0l.8-.5c.1-.1.2-.2.2-.2l0-.6c0 .1-.1.2-.2.2l-.8.5c-.2.1-.6.1-.9 0l-1.5-.9C25.5 24.5 25.5 24.4 25.5 24.3zM28.6 26.2l0 .6c0 .1.1.2.2.3l1.5.9c.2.1.6.1.9 0l.8-.5c.1-.1.2-.2.2-.2l0-.6c0 .1-.1.2-.2.2l-.8.5c-.2.1-.6.1-.9 0l-1.5-.9C28.7 26.3 28.6 26.2 28.6 26.2zM35.1 28.6l-.8.5c-.2.1-.6.1-.9 0l-1.5-.9c-.1-.1-.2-.2-.2-.2l0 .6c0 .1.1.2.2.2l1.5.9c.2.1.6.1.9 0l.8-.5c.1-.1.2-.2.2-.2l0-.6C35.3 28.5 35.2 28.6 35.1 28.6z"/><path fill="#F1F1F1" d="M25.7 22.7c.2.1.2.4 0 .5l-.8.5c-.2.1-.6.1-.9 0l-1.5-.9c-.2-.1-.2-.4 0-.5l.8-.5c.2-.1.6-.1.9 0L25.7 22.7zM28.9 24.5c.2.1.2.4 0 .5l-.8.5c-.2.1-.6.1-.9 0l-1.5-.9c-.2-.1-.2-.4 0-.5l.8-.5c.2-.1.6-.1.9 0L28.9 24.5zM32 26.3c.2.1.2.4 0 .5l-.8.5c-.2.1-.6.1-.9 0l-1.5-.9c-.2-.1-.2-.4 0-.5l.8-.5c.2-.1.6-.1.9 0L32 26.3zM35.1 28.1c.2.1.2.4 0 .5l-.8.5c-.2.1-.6.1-.9 0l-1.5-.9c-.2-.1-.2-.4 0-.5l.8-.5c.2-.1.6-.1.9 0L35.1 28.1z"/><g><path fill="#B0AFB0" d="M19.7 25.1l1.5.9c.2.1.6.1.9 0l.8-.5c.1-.1.2-.2.2-.2l0-.6c0 .1-.1.2-.2.2l-.8.5c-.2.1-.6.1-.9 0l-1.5-.9c-.1-.1-.2-.2-.2-.3l0 .6C19.5 24.9 19.6 25 19.7 25.1zM22.6 26l0 .6c0 .1.1.2.2.3l1.5.9c.2.1.6.1.9 0l.8-.5c.1-.1.2-.2.2-.2l0-.6c0 .1-.1.2-.2.2l-.8.5c-.2.1-.6.1-.9 0l-1.5-.9C22.7 26.2 22.6 26.1 22.6 26zM25.8 27.8l0 .6c0 .1.1.2.2.3l1.5.9c.2.1.6.1.9 0l.8-.5c.1-.1.2-.2.2-.2l0-.6c0 .1-.1.2-.2.2L28.4 29c-.2.1-.6.1-.9 0l-1.5-.9C25.8 28 25.8 27.9 25.8 27.8zM32.3 30.3l-.8.5c-.2.1-.6.1-.9 0l-1.5-.9c-.1-.1-.2-.2-.2-.2l0 .6c0 .1.1.2.2.2l1.5.9c.2.1.6.1.9 0l.8-.5c.1-.1.2-.2.2-.2l0-.6C32.4 30.1 32.4 30.2 32.3 30.3z"/><path fill="#F1F1F1" d="M22.9 24.4c.2.1.2.4 0 .5l-.8.5c-.2.1-.6.1-.9 0l-1.5-.9c-.2-.1-.2-.4 0-.5l.8-.5c.2-.1.6-.1.9 0L22.9 24.4zM26 26.2c.2.1.2.4 0 .5l-.8.5c-.2.1-.6.1-.9 0l-1.5-.9c-.2-.1-.2-.4 0-.5l.8-.5c.2-.1.6-.1.9 0L26 26.2zM29.1 28c.2.1.2.4 0 .5L28.4 29c-.2.1-.6.1-.9 0l-1.5-.9c-.2-.1-.2-.4 0-.5l.8-.5c.2-.1.6-.1.9 0L29.1 28zM32.3 29.8c.2.1.2.4 0 .5l-.8.5c-.2.1-.6.1-.9 0l-1.5-.9c-.2-.1-.2-.4 0-.5l.8-.5c.2-.1.6-.1.9 0L32.3 29.8z"/></g><g><path fill="#B0AFB0" d="M16.9 26.7l1.5.9c.2.1.6.1.9 0l.8-.5c.1-.1.2-.2.2-.2l0-.6c0 .1-.1.2-.2.2L19.3 27c-.2.1-.6.1-.9 0l-1.5-.9c-.1-.1-.2-.2-.2-.3l0 .6C16.7 26.6 16.7 26.7 16.9 26.7zM19.8 27.6l0 .6c0 .1.1.2.2.3l1.5.9c.2.1.6.1.9 0l.8-.5c.1-.1.2-.2.2-.2l0-.6c0 .1-.1.2-.2.2l-.8.5c-.2.1-.6.1-.9 0L20 27.9C19.9 27.8 19.8 27.7 19.8 27.6zM22.9 29.5l0 .6c0 .1.1.2.2.3l1.5.9c.2.1.6.1.9 0l.8-.5c.1-.1.2-.2.2-.2l0-.6c0 .1-.1.2-.2.2l-.8.5c-.2.1-.6.1-.9 0l-1.5-.9C23 29.6 22.9 29.5 22.9 29.5zM29.4 31.9l-.8.5c-.2.1-.6.1-.9 0l-1.5-.9c-.1-.1-.2-.2-.2-.2l0 .6c0 .1.1.2.2.2l1.5.9c.2.1.6.1.9 0l.8-.5c.1-.1.2-.2.2-.2l0-.6C29.6 31.8 29.6 31.9 29.4 31.9z"/><path fill="#F1F1F1" d="M20.1 26c.2.1.2.4 0 .5L19.3 27c-.2.1-.6.1-.9 0l-1.5-.9c-.2-.1-.2-.4 0-.5l.8-.5c.2-.1.6-.1.9 0L20.1 26zM23.2 27.8c.2.1.2.4 0 .5l-.8.5c-.2.1-.6.1-.9 0L20 27.9c-.2-.1-.2-.4 0-.5l.8-.5c.2-.1.6-.1.9 0L23.2 27.8zM26.3 29.6c.2.1.2.4 0 .5l-.8.5c-.2.1-.6.1-.9 0l-1.5-.9c-.2-.1-.2-.4 0-.5l.8-.5c.2-.1.6-.1.9 0L26.3 29.6zM29.4 31.4c.2.1.2.4 0 .5l-.8.5c-.2.1-.6.1-.9 0l-1.5-.9c-.2-.1-.2-.4 0-.5l.8-.5c.2-.1.6-.1.9 0L29.4 31.4z"/></g><g><path fill="#B0AFB0" d="M14 28.4l1.5.9c.2.1.6.1.9 0l.8-.5c.1-.1.2-.2.2-.2l0-.6c0 .1-.1.2-.2.2l-.8.5c-.2.1-.6.1-.9 0L14 27.7c-.1-.1-.2-.2-.2-.3l0 .6C13.9 28.2 13.9 28.3 14 28.4zM17 29.3l0 .6c0 .1.1.2.2.3l1.5.9c.2.1.6.1.9 0l.8-.5c.1-.1.2-.2.2-.2l0-.6c0 .1-.1.2-.2.2l-.8.5c-.2.1-.6.1-.9 0l-1.5-.9C17 29.5 17 29.4 17 29.3zM20.1 31.1l0 .6c0 .1.1.2.2.3l1.5.9c.2.1.6.1.9 0l.8-.5c.1-.1.2-.2.2-.2l0-.6c0 .1-.1.2-.2.2l-.8.5c-.2.1-.6.1-.9 0l-1.5-.9C20.2 31.3 20.1 31.2 20.1 31.1zM26.6 33.6l-.8.5c-.2.1-.6.1-.9 0l-1.5-.9c-.1-.1-.2-.2-.2-.2l0 .6c0 .1.1.2.2.2l1.5.9c.2.1.6.1.9 0l.8-.5c.1-.1.2-.2.2-.2l0-.6C26.8 33.4 26.7 33.5 26.6 33.6z"/><path fill="#F1F1F1" d="M17.2 27.7c.2.1.2.4 0 .5l-.8.5c-.2.1-.6.1-.9 0L14 27.7c-.2-.1-.2-.4 0-.5l.8-.5c.2-.1.6-.1.9 0L17.2 27.7zM20.4 29.5c.2.1.2.4 0 .5l-.8.5c-.2.1-.6.1-.9 0l-1.5-.9c-.2-.1-.2-.4 0-.5l.8-.5c.2-.1.6-.1.9 0L20.4 29.5zM23.5 31.3c.2.1.2.4 0 .5l-.8.5c-.2.1-.6.1-.9 0l-1.5-.9c-.2-.1-.2-.4 0-.5l.8-.5c.2-.1.6-.1.9 0L23.5 31.3zM26.6 33.1c.2.1.2.4 0 .5l-.8.5c-.2.1-.6.1-.9 0l-1.5-.9c-.2-.1-.2-.4 0-.5l.8-.5c.2-.1.6-.1.9 0L26.6 33.1z"/></g><g><g enable-background="new"><path fill="#BC2B3B" d="M22.2,11.5c0.1,0.1,0.2,0.3,0.2,0.5l0,1.1c0,0.3,0.1,0.4,0.2,0.5l3.9,2.3c-0.1-0.1-0.2-0.3-0.2-0.5
					l0-1.1c0-0.3-0.1-0.4-0.2-0.5L22.2,11.5z"/><path fill="#DD454D" d="M13.2,17.6c-0.1,0.1-0.3,0.2-0.4,0.3l-3.5,4.1C9.1,22.4,9,22.8,9,23.2l0,2.2c0,0.5,0.4,0.7,0.8,0.5
						L13,24c0.4-0.3,0.8-0.9,0.8-1.4l0-1.1c0-0.5,0.4-1.1,0.8-1.4l10.9-6.3c0.4-0.3,0.8,0,0.8,0.5l0,1.1c0,0.5,0.4,0.7,0.8,0.5
						l3.2-1.9c0.4-0.3,0.8-0.9,0.8-1.4l0-2.2c0-0.3-0.2-0.6-0.4-0.6l-3.5-0.1c-0.1,0-0.2,0-0.4,0.1L13.2,17.6z"/><path fill="#EF5A5A" d="M5,19.6l3.5-4.1c0.1-0.1,0.2-0.3,0.4-0.3l13.6-7.9c0.1-0.1,0.3-0.1,0.4-0.1l3.5,0.1c0.1,0,0.1,0,0.2,0.1
					l4.4,2.5c-0.1,0-0.1-0.1-0.2-0.1l-3.5-0.1c-0.1,0-0.2,0-0.4,0.1l-13.6,7.9c-0.1,0.1-0.3,0.2-0.4,0.3l-3.5,4.1
					C9.1,22.4,9,22.8,9,23.2l0,2.2c0,0.3,0.1,0.4,0.2,0.5l-4.4-2.5c-0.1-0.1-0.2-0.3-0.2-0.5l0-2.2C4.6,20.3,4.8,19.9,5,19.6z"/></g></g></svg>